<svg height="512pt" viewBox="0 0 512 512" width="512pt" xmlns="http://www.w3.org/2000/svg"><path d="m122 387.5v87h276.5c4.140625 0 7.5-3.355469 7.5-7.5v-79.5c-11.691406 0-272.90625 0-284 0zm0 0" fill="#d3cdbf"/><g fill="#fff9eb"><path d="m106 497c0 4.144531 3.359375 7.5 7.5 7.5h15c4.140625 0 7.5-3.355469 7.5-7.5v-109.5h-30zm0 0"/><path d="m166 497c0 4.144531 3.359375 7.5 7.5 7.5h15c4.140625 0 7.5-3.355469 7.5-7.5v-109.5h-30zm0 0"/><path d="m226 497c0 4.144531 3.359375 7.5 7.5 7.5h15c4.140625 0 7.5-3.355469 7.5-7.5v-109.5h-30zm0 0"/><path d="m286 497c0 4.144531 3.359375 7.5 7.5 7.5h15c4.140625 0 7.5-3.355469 7.5-7.5v-109.5h-30zm0 0"/><path d="m346 387.5v109.5c0 4.144531 3.359375 7.5 7.5 7.5h15c4.140625 0 7.5-3.355469 7.5-7.5v-109.5zm0 0"/></g><path d="m7.5 278.003906v104.496094c0 8.285156 6.714844 15 15 15h467c8.285156 0 15-6.714844 15-15v-105.492188l-248.5-40zm0 0" fill="#596775"/><path d="m504.5 203.007812c0-8.285156-6.714844-15-15-15-11.398438 0-454.46875 0-467 0-8.285156 0-15 6.714844-15 15v74.996094h497zm0 0" fill="#8b9ba9"/><path d="m76 225.507812v15c0 4.140626 3.359375 7.5 7.5 7.5h345c4.140625 0 7.5-3.359374 7.5-7.5v-15c0-4.140624-3.359375-7.5-7.5-7.5h-345c-4.140625 0-7.5 3.355469-7.5 7.5zm0 0" fill="#4d5967"/><path d="m444.5 367.5h-437v15c0 8.285156 6.714844 15 15 15h467c8.285156 0 15-6.714844 15-15v-104.496094l-30-5.824218v65.320312c0 16.570312-13.429688 30-30 30zm0 0" fill="#4d5967"/><path d="m474.5 188.007812v89.996094h30v-74.996094c0-8.285156-6.714844-15-15-15zm0 0" fill="#6c7a88"/><path d="m106 248.007812v-210.507812c0-16.570312 13.429688-30 30-30h240c16.570312 0 30 13.429688 30 30v210.507812z" fill="#fff9eb"/><path d="m376 7.5v180.507812c0 16.566407-13.429688 30-30 30h-240v30h300v-210.507812c0-16.566406-13.429688-30-30-30zm0 0" fill="#d3cdbf"/><path d="m67.5 323.003906c0 8.285156-6.714844 15-15 15s-15-6.714844-15-15 6.714844-15 15-15 15 6.714844 15 15zm0 0" fill="#ff5368"/><path d="m127.5 323.003906c0 8.285156-6.714844 15-15 15s-15-6.714844-15-15 6.714844-15 15-15 15 6.714844 15 15zm0 0" fill="#92c52c"/><path d="m489.5 180.507812h-76v-143.007812c0-20.679688-16.820312-37.5-37.5-37.5h-240c-20.679688 0-37.5 16.820312-37.5 37.5v143.007812h-76c-12.40625 0-22.5 10.09375-22.5 22.5v179.996094c0 12.335938 9.882812 21.996094 22.5 21.996094h76v99.5c0 4.144531 3.355469 7.5 7.5 7.5h30c4.144531 0 7.5-3.355469 7.5-7.5v-22.5h15v22.5c0 4.144531 3.355469 7.5 7.5 7.5h30c4.144531 0 7.5-3.355469 7.5-7.5v-22.5h15v22.5c0 4.144531 3.355469 7.5 7.5 7.5h30c4.144531 0 7.5-3.355469 7.5-7.5v-22.5h15v22.5c0 4.144531 3.355469 7.5 7.5 7.5h30c4.144531 0 7.5-3.355469 7.5-7.5v-22.5h15v22.5c0 4.144531 3.355469 7.5 7.5 7.5h30c4.144531 0 7.5-3.355469 7.5-7.5v-22.5h22.5c4.144531 0 7.5-3.355469 7.5-7.5v-69.5h76c12.617188 0 22.5-9.660156 22.5-21.996094v-179.996094c0-12.40625-10.09375-22.5-22.5-22.5zm-376-143.007812c0-12.40625 10.09375-22.5 22.5-22.5h240c12.40625 0 22.5 10.09375 22.5 22.5v203.007812h-285zm15 459.5h-15v-92h15zm15-30v-62h15v62zm45 30h-15v-92h15zm15-30v-62h15v62zm45 30h-15v-92h15zm15-30v-62h15v62zm45 30h-15v-92h15zm15-30v-62h15v62zm45 30h-15v-92h15zm30-30h-15v-62h15zm91-77h-467c-4.273438 0-7.5-3.007812-7.5-6.996094v-103.515625c.097656-.480469.148438-.980469.148438-1.488281s-.050782-1.003906-.148438-1.484375v-73.507813c0-4.136718 3.363281-7.5 7.5-7.5h76v45h-15v-22.5c0-4.144531-3.355469-7.5-7.5-7.5s-7.5 3.355469-7.5 7.5v30c0 4.140626 3.355469 7.5 7.5 7.5h360c4.144531 0 7.5-3.359374 7.5-7.5v-30c0-4.144531-3.355469-7.5-7.5-7.5s-7.5 3.355469-7.5 7.5v22.5h-15v-45h76c4.136719 0 7.5 3.363282 7.5 7.5v67.492188h-459.351562c-4.140626 0-7.5 3.371094-7.5 7.5 0 4.140625 3.359374 7.5 7.5 7.5h459.351562v97.503906c0 3.988282-3.226562 6.996094-7.5 6.996094zm0 0"/><path d="m151 135.507812h139.996094c4.140625 0 7.5-3.355468 7.5-7.5 0-4.144531-3.359375-7.5-7.5-7.5h-139.996094c-4.144531 0-7.5 3.355469-7.5 7.5 0 4.144532 3.355469 7.5 7.5 7.5zm0 0"/><path d="m211.003906 75.507812h89.992188c4.144531 0 7.5-3.355468 7.5-7.5 0-4.144531-3.355469-7.5-7.5-7.5h-89.992188c-4.144531 0-7.5 3.355469-7.5 7.5 0 4.144532 3.355469 7.5 7.5 7.5zm0 0"/><path d="m151 225.507812h210c4.144531 0 7.5-3.355468 7.5-7.5 0-4.144531-3.355469-7.5-7.5-7.5h-210c-4.144531 0-7.5 3.355469-7.5 7.5 0 4.144532 3.355469 7.5 7.5 7.5zm0 0"/><path d="m151 195.507812h210c4.144531 0 7.5-3.355468 7.5-7.5 0-4.144531-3.355469-7.5-7.5-7.5h-210c-4.144531 0-7.5 3.355469-7.5 7.5 0 4.144532 3.355469 7.5 7.5 7.5zm0 0"/><path d="m151 105.507812h210c4.144531 0 7.5-3.355468 7.5-7.5 0-4.144531-3.355469-7.5-7.5-7.5h-210c-4.144531 0-7.5 3.355469-7.5 7.5 0 4.144532 3.355469 7.5 7.5 7.5zm0 0"/><path d="m52.5 300.503906c-12.40625 0-22.5 10.09375-22.5 22.5s10.09375 22.5 22.5 22.5 22.5-10.09375 22.5-22.5-10.09375-22.5-22.5-22.5zm0 30c-4.136719 0-7.5-3.363281-7.5-7.5 0-4.136718 3.363281-7.5 7.5-7.5s7.5 3.363282 7.5 7.5c0 4.136719-3.363281 7.5-7.5 7.5zm0 0"/><path d="m112.5 300.503906c-12.40625 0-22.5 10.09375-22.5 22.5s10.09375 22.5 22.5 22.5 22.5-10.09375 22.5-22.5-10.09375-22.5-22.5-22.5zm0 30c-4.136719 0-7.5-3.363281-7.5-7.5 0-4.136718 3.363281-7.5 7.5-7.5s7.5 3.363282 7.5 7.5c0 4.136719-3.363281 7.5-7.5 7.5zm0 0"/></svg>